<svg width="670" height="386" viewBox="0 0 670 386" fill="none" xmlns="http://www.w3.org/2000/svg">
<path fill-rule="evenodd" clip-rule="evenodd" d="M662.498 302.766H612.107C610.545 302.766 609.49 303.352 608.943 304.523C608.787 304.914 608.67 305.266 608.592 305.578L604.373 321.047C603.514 325.266 604.451 327.453 607.186 327.609H624.529C620.779 340.031 615.818 348.352 609.646 352.57C606.756 354.445 604.061 355.109 601.561 354.562C597.186 353.469 594.998 347.023 594.998 335.227C595.076 324.055 597.029 311.125 600.857 296.438C609.686 263.078 618.904 246.555 628.514 246.867C629.217 246.867 629.92 246.984 630.623 247.219C633.67 248.078 635.232 252.219 635.311 259.641C635.311 260.812 635.154 265.109 634.842 272.531C634.686 275.266 635.545 276.594 637.42 276.516C637.889 276.516 638.357 276.438 638.826 276.281L665.311 268.312C668.436 267.062 669.998 264.562 669.998 260.812C669.998 243.234 666.561 230.852 659.686 223.664C657.967 221.867 656.092 220.344 654.061 219.094C647.264 215.266 639.529 213.234 630.857 213C615.936 213 602.459 221.086 590.428 237.258C580.428 250.773 572.811 268 567.576 288.938C563.201 306.203 561.014 320.812 561.014 332.766C561.014 354.094 565.623 368.898 574.842 377.18C581.404 382.961 590.389 385.891 601.795 385.969C618.357 385.969 632.381 376.867 643.865 358.664C649.021 350.539 653.357 340.969 656.873 329.953C657.264 328.859 657.576 327.883 657.811 327.023C658.904 326.164 659.92 324.172 660.857 321.047L664.607 307.922C665.623 304.562 664.92 302.844 662.498 302.766ZM466.795 214.875C463.045 214.953 460.701 216.672 459.764 220.031L419.686 377.297C418.905 380.344 419.569 382.531 421.678 383.859C422.537 384.328 423.436 384.562 424.373 384.562H444.295C448.045 384.484 450.389 382.766 451.326 379.406L475.233 285.539L496.561 379.875C496.873 381.125 497.342 382.219 497.967 383.156C498.67 384.094 499.842 384.562 501.483 384.562H521.405C525.155 384.484 527.498 382.766 528.436 379.406L568.514 222.141C569.295 219.094 568.631 216.906 566.522 215.578C565.662 215.109 564.764 214.875 563.827 214.875H543.905C540.155 214.953 537.811 216.672 536.873 220.031L513.436 311.906L493.045 222.141C492.342 219.562 491.795 218 491.405 217.453C491.092 217.062 490.78 216.75 490.467 216.516C489.139 215.422 487.694 214.875 486.131 214.875H466.795ZM394.959 220.031C395.896 216.672 398.24 214.953 401.99 214.875H421.912C422.927 214.875 423.826 215.109 424.607 215.578C426.638 216.906 427.302 219.094 426.599 222.141L386.521 379.406C385.584 382.766 383.24 384.484 379.49 384.562H359.568C358.552 384.562 357.654 384.328 356.873 383.859C354.842 382.531 354.177 380.344 354.881 377.297L394.959 220.031ZM262.655 214.875C258.905 214.953 256.561 216.672 255.623 220.031L215.545 377.297C214.764 380.344 215.428 382.531 217.537 383.859C218.397 384.328 219.295 384.562 220.233 384.562H240.155C243.905 384.484 246.248 382.766 247.186 379.406L271.092 285.539L292.42 379.875C292.733 381.125 293.202 382.219 293.827 383.156C294.53 384.094 295.702 384.562 297.342 384.562H317.264C321.014 384.484 323.358 382.766 324.295 379.406L364.373 222.141C365.155 219.094 364.491 216.906 362.381 215.578C361.522 215.109 360.623 214.875 359.686 214.875H339.764C336.014 214.953 333.67 216.672 332.733 220.031L309.295 311.906L288.905 222.141C288.202 219.562 287.655 218 287.264 217.453C286.952 217.062 286.639 216.75 286.327 216.516C284.998 215.422 283.553 214.875 281.991 214.875H262.655ZM190.818 220.031C191.756 216.672 194.099 214.953 197.849 214.875H217.771C218.787 214.875 219.685 215.109 220.467 215.578C222.498 216.906 223.162 219.094 222.459 222.141L182.381 379.406C181.443 382.766 179.099 384.484 175.349 384.562H155.427C154.412 384.562 153.513 384.328 152.732 383.859C150.701 382.531 150.037 380.344 150.74 377.297L190.818 220.031ZM47.3806 214.875C43.6306 214.953 41.2868 216.672 40.3493 220.031L0.271205 377.297C-0.43192 380.344 0.232143 382.531 2.26339 383.859C3.04464 384.328 3.94308 384.562 4.95871 384.562H24.8806C28.6306 384.484 30.9743 382.766 31.9118 379.406L53.5915 294.211C54.0603 308.039 53.9431 320.344 53.24 331.125C52.9275 336.672 55.4275 339.797 60.74 340.5L76.2087 342.141C81.8337 342.141 86.7165 338.742 90.8571 331.945C91.0134 331.711 91.1306 331.516 91.2087 331.359L106.56 305.93L88.3962 377.297C87.6931 380.344 88.3571 382.531 90.3884 383.859C91.1696 384.328 92.0681 384.562 93.0837 384.562H113.006C116.756 384.484 119.099 382.766 120.037 379.406L160.115 222.141C160.818 219.094 160.154 216.906 158.123 215.578C157.342 215.109 156.443 214.875 155.427 214.875H132.927C130.193 214.875 128.006 216.086 126.365 218.508C126.209 218.82 126.052 219.094 125.896 219.328L78.2009 301.477C79.2165 277.805 78.3181 250.734 75.5056 220.266C75.115 217.141 73.7478 215.383 71.404 214.992C70.8571 214.914 70.3493 214.875 69.8806 214.875H47.3806Z" fill="#FEB113"/>
<path fill-rule="evenodd" clip-rule="evenodd" d="M381.748 96.7656H432.139C434.561 96.8438 435.264 98.5625 434.248 101.922L430.498 115.047C429.561 118.172 428.545 120.164 427.451 121.023C427.217 121.883 426.904 122.859 426.514 123.953C422.998 134.969 418.662 144.539 413.506 152.664C402.021 170.867 387.998 179.969 371.436 179.969C360.029 179.891 351.045 176.961 344.482 171.18C335.264 162.898 330.654 148.094 330.654 126.766C330.654 114.812 332.842 100.203 337.217 82.9375C342.451 62 350.068 44.7734 360.068 31.2578C372.1 15.0859 385.576 7 400.498 7C409.17 7.23438 416.904 9.26562 423.701 13.0938C425.732 14.3438 427.607 15.8672 429.326 17.6641C436.201 24.8516 439.639 37.2344 439.639 54.8125C439.639 58.5625 438.076 61.0625 434.951 62.3125L408.467 70.2812C407.998 70.4375 407.529 70.5156 407.061 70.5156C405.186 70.5938 404.326 69.2656 404.482 66.5312C404.795 59.1094 404.951 54.8125 404.951 53.6406C404.873 46.2188 403.311 42.0781 400.264 41.2188C399.561 40.9844 398.857 40.8672 398.154 40.8672C388.545 40.5547 379.326 57.0781 370.498 90.4375C366.67 105.125 364.717 118.055 364.639 129.227C364.639 141.023 366.826 147.469 371.201 148.562C373.701 149.109 376.396 148.445 379.287 146.57C385.459 142.352 390.42 134.031 394.17 121.609H376.826C374.092 121.453 373.154 119.266 374.014 115.047L378.232 99.5781C378.311 99.2656 378.428 98.9141 378.584 98.5234C379.131 97.3516 380.186 96.7656 381.748 96.7656ZM531.513 72.625H491.552L500.693 36.7656H545.576C548.232 36.7656 550.458 35.5156 552.255 33.0156C552.88 32.0781 553.31 31.1406 553.544 30.2031L556.591 16.375C557.607 11.4531 555.81 8.95313 551.201 8.875H464.247C462.294 8.875 461.083 9.30469 460.615 10.1641C460.224 11.0234 459.872 12.1562 459.56 13.5625L455.81 28.3281C454.482 33.3281 455.38 36.1016 458.505 36.6484C459.052 36.7266 459.638 36.7656 460.263 36.7656H468.583L434.247 171.297C433.466 174.344 434.091 176.531 436.122 177.859C436.982 178.328 437.919 178.562 438.935 178.562H510.888C513.544 178.562 515.771 177.312 517.568 174.812C518.193 173.875 518.622 172.938 518.857 172L521.904 158.172C522.919 153.25 521.122 150.75 516.513 150.672H471.63L484.521 100.516H526.122C528.622 100.516 530.732 99.2656 532.451 96.7656C532.997 95.8281 533.388 94.8906 533.622 93.9531L536.435 80.125C537.451 75.2031 535.81 72.7031 531.513 72.625ZM603.584 85.2812L594.795 86.5703L607.568 36.5312H614.482C618.779 36.6094 621.396 36.7266 622.334 36.8828C623.896 37.1953 625.224 37.8203 626.318 38.7578C627.568 39.7734 628.193 40.9062 628.193 42.1562C628.193 48.9531 626.787 57.5859 623.974 68.0547C623.349 70.3984 622.06 73.2109 620.107 76.4922C618.076 79.6953 613.857 82.3906 607.451 84.5781C607.138 84.7344 605.849 84.9688 603.584 85.2812ZM567.49 36.2969H575.459L541.006 171.297C540.302 174.344 540.966 176.531 542.998 177.859C543.779 178.328 544.677 178.562 545.693 178.562H565.615C569.365 178.484 571.709 176.766 572.646 173.406L588.701 110.242H593.037L600.068 166.844C600.849 172.859 602.881 176.609 606.162 178.094C606.943 178.406 607.724 178.562 608.506 178.562H627.021C631.162 178.562 633.349 176.453 633.584 172.234C633.584 171.141 633.506 169.969 633.349 168.719L623.857 105.203C628.701 102.703 633.74 98.875 638.974 93.7188C643.818 89.4219 648.232 81.375 652.216 69.5781C655.888 58.7188 657.724 48.6406 657.724 39.3438C657.724 25.75 651.826 16.6094 640.029 11.9219C634.795 9.89062 628.818 8.875 622.099 8.875H572.177C570.381 8.875 568.857 9.8125 567.607 11.6875C567.216 12.3125 566.943 12.9375 566.787 13.5625L562.568 29.7344C561.787 32.3125 562.412 34.2266 564.443 35.4766C565.381 36.0234 566.396 36.2969 567.49 36.2969ZM236.436 8.875C232.686 8.95313 230.342 10.6719 229.405 14.0312L189.326 171.297C188.545 174.344 189.209 176.531 191.319 177.859C192.178 178.328 193.076 178.562 194.014 178.562H213.936C217.686 178.484 220.03 176.766 220.967 173.406L244.873 79.5391L266.201 173.875C266.514 175.125 266.983 176.219 267.608 177.156C268.311 178.094 269.483 178.562 271.123 178.562H291.045C294.795 178.484 297.139 176.766 298.076 173.406L338.155 16.1406C338.936 13.0938 338.272 10.9062 336.162 9.57812C335.303 9.10938 334.405 8.875 333.467 8.875H313.545C309.795 8.95313 307.451 10.6719 306.514 14.0312L283.076 105.906L262.686 16.1406C261.983 13.5625 261.436 12 261.045 11.4531C260.733 11.0625 260.42 10.75 260.108 10.5156C258.78 9.42188 257.334 8.875 255.772 8.875H236.436ZM164.599 14.0312C165.537 10.6719 167.881 8.95313 171.631 8.875H191.552C192.568 8.875 193.467 9.10938 194.248 9.57812C196.279 10.9062 196.943 13.0938 196.24 16.1406L156.162 173.406C155.224 176.766 152.881 178.484 149.131 178.562H129.209C128.193 178.562 127.295 178.328 126.513 177.859C124.482 176.531 123.818 174.344 124.521 171.297L164.599 14.0312Z" fill="white"/>
<path fill-rule="evenodd" clip-rule="evenodd" d="M72.3804 0.875C68.6304 0.953125 66.2866 2.67188 65.3491 6.03125C65.0908 7.04491 64.9044 7.99442 64.7843 8.88333C61.4631 8.96101 20.6168 10.8519 0 56.88C27.474 38.151 54.0807 36.8648 57.6057 36.7765L23.2712 171.302C22.5681 174.349 23.2321 176.536 25.2634 177.864C26.0446 178.333 26.9431 178.568 27.9587 178.568H47.8806C51.6306 178.489 53.9743 176.771 54.9118 173.411L70.4978 112.239H112.099C114.599 112.239 116.709 110.989 118.427 108.489C118.974 107.552 119.365 106.614 119.599 105.677L122.412 91.8488C123.427 86.9269 121.787 84.4269 117.49 84.3488H77.6462L89.7165 36.7706H134.599C137.256 36.7706 139.482 35.5206 141.279 33.0206C141.904 32.0831 142.334 31.1456 142.568 30.2081L145.615 16.38C146.631 11.4581 144.834 8.95813 140.224 8.88H96.8323L96.9898 8.14062C97.6929 5.09375 97.0288 2.90625 94.9976 1.57812C94.2163 1.10937 93.3179 0.875 92.3022 0.875H72.3804Z" fill="white"/>
</svg>
