<svg width="499" height="582" viewBox="0 0 499 582" fill="none" xmlns="http://www.w3.org/2000/svg">
<path d="M491.116 16.291L459.335 1.23702C455.87 -0.435646 451.689 -0.316149 448.224 1.59547C444.759 3.50708 442.489 6.97186 442.011 10.7951L424.926 155.122L355.869 76.6263L355.63 76.3873C355.511 76.2679 355.272 76.0289 355.152 75.9094L354.913 75.6705C354.674 75.4316 354.435 75.1926 354.077 74.9536L353.957 74.8342L353.838 74.7147C352.882 73.9978 351.807 73.5199 350.612 73.1615C350.493 73.1615 350.373 73.042 350.254 73.042C350.015 72.9225 349.776 72.9225 349.656 72.9225L349.178 72.8031C349.059 72.8031 349.059 72.8031 349.059 72.8031C348.82 72.8031 348.462 72.6836 348.223 72.6836C348.103 72.6836 347.984 72.6836 347.745 72.6836C347.506 72.6836 347.267 72.6836 347.147 72.6836H268.293L264.948 62.1697C263.275 57.1517 258.616 53.8064 253.359 53.8064H241.531C236.393 53.8064 231.734 57.0323 230.061 61.9308L226.238 72.6836H151.565H151.446H151.326C151.087 72.6836 150.848 72.6836 150.729 72.6836C150.61 72.6836 150.371 72.6836 150.251 72.6836C150.012 72.6836 149.773 72.8031 149.415 72.8031C149.295 72.8031 149.176 72.8031 149.176 72.8031H148.937C148.698 72.8031 148.578 72.9225 148.22 73.042C148.1 73.042 147.981 73.1615 147.742 73.1615C146.547 73.5199 145.353 74.1173 144.397 74.9536L144.158 75.0731C143.919 75.3121 143.68 75.4316 143.441 75.6705C143.321 75.79 143.321 75.79 143.202 75.9094C143.083 76.0289 142.844 76.2679 142.724 76.3873L73.428 155.122L56.3431 10.7951C55.8652 6.97186 53.595 3.50708 50.1302 1.59547C46.6654 -0.316149 42.6034 -0.435646 39.0191 1.23702L7.23837 16.291C2.45934 18.561 -0.288547 23.579 0.428308 28.836L33.7621 289.532L5.44624 313.427C2.10091 316.295 0.547842 320.716 1.38417 325.017L24.8014 447.718C25.5183 451.422 27.9078 454.648 31.3726 456.321L92.6636 486.787L202.343 578.186C202.462 578.305 202.701 578.425 202.82 578.544C203.059 578.783 203.418 578.903 203.657 579.142C203.896 579.261 204.135 579.381 204.254 579.5C204.613 579.739 204.971 579.859 205.449 580.098C205.688 580.217 205.927 580.337 206.166 580.337C206.644 580.456 207.122 580.576 207.48 580.695C207.719 580.695 207.838 580.814 208.077 580.814C208.794 580.934 209.511 581.053 210.108 581.053H288.604C289.321 581.053 289.918 580.934 290.635 580.814C290.874 580.814 290.994 580.695 291.233 580.695C291.591 580.576 292.069 580.456 292.547 580.337C292.786 580.217 293.025 580.217 293.264 580.098C293.622 579.978 293.981 579.739 294.339 579.62C294.578 579.5 294.817 579.381 295.056 579.142C295.295 579.022 295.653 578.783 295.892 578.544L296.131 578.425L406.049 486.787L467.34 456.321C470.685 454.648 473.194 451.422 473.911 447.718L497.328 325.017C498.165 320.716 496.612 316.295 493.266 313.427L464.951 289.532L498.284 28.836C498.643 23.579 495.895 18.561 491.116 16.291Z" fill="#303030"/>
<path d="M98.3989 414.982L105.329 473.047L181.196 536.369L158.734 460.861L98.3989 414.982Z" fill="#C2C1C0"/>
<path d="M97.3232 406.021L98.3986 414.982L158.734 460.861L181.195 536.37L196.966 549.512L167.097 451.9L97.3232 406.021Z" fill="#969696"/>
<path d="M250.731 341.982H241.651C241.053 341.982 240.456 341.863 239.978 341.743L228.986 338.756L196.967 360.501L134.003 335.172L131.972 312.71L129.224 311.994L124.923 310.799C124.206 310.679 123.608 310.321 123.011 309.963L82.8672 284.156L90.0357 344.372L180.599 399.092L247.385 357.514C248.341 356.917 249.536 356.558 250.731 356.558V341.982Z" fill="white"/>
<path d="M375.105 310.082C374.507 310.44 373.91 310.799 373.193 310.918L368.175 312.233L366.263 312.71L364.232 335.172L301.269 360.501L268.771 338.517L256.226 341.863C255.629 341.982 255.151 342.102 254.553 342.102H250.85V356.797C251.208 356.797 251.567 356.797 251.805 356.797C252.164 356.797 252.403 356.917 252.761 357.036C252.761 357.036 252.761 357.036 252.881 357.036C253.12 357.156 253.478 357.156 253.717 357.275H253.837C254.195 357.394 254.434 357.514 254.673 357.753L317.637 399.092L408.08 344.372L415.248 284.156L375.105 310.082Z" fill="#C2C1C0"/>
<path d="M196.847 360.501L228.866 338.876L131.852 312.83L133.764 335.292L196.847 360.501Z" fill="#DDDDDD"/>
<path d="M364.233 335.292L366.264 312.83L268.652 338.517L301.269 360.501L364.233 335.292Z" fill="#969696"/>
<path d="M179.642 426.093L92.186 363.607L95.1729 388.817L176.297 442.223C177.611 443.059 178.567 444.373 179.045 445.807L214.649 562.296H249.416V383.918L179.642 426.093Z" fill="#969696"/>
<path d="M249.536 383.918V372.09L184.182 412.712C183.107 413.429 181.912 413.668 180.718 413.668C179.523 413.668 178.328 413.309 177.253 412.712L92.0664 361.218L92.3054 363.488L179.642 426.093L249.536 383.918Z" fill="#ABA9A6"/>
<path d="M320.863 412.832C318.712 414.146 315.964 414.146 313.814 412.712L250.85 371.373L249.536 372.21V384.038L250.014 383.799L320.265 427.885L405.452 366.833L406.049 361.337L320.863 412.832Z" fill="#969696"/>
<path d="M249.894 383.679L249.416 383.918V562.295H283.228L318.831 445.807C319.309 444.373 320.265 443.059 321.579 442.222L402.703 388.817L405.332 366.833L320.146 427.885L249.894 383.679Z" fill="#ABA9A6"/>
<path d="M319.19 534.458L392.787 473.047L399.119 419.88L339.381 459.188L319.19 534.458Z" fill="#C2C1C0"/>
<path d="M330.898 451.9L301.149 549.512L319.19 534.458L339.381 459.188L399.119 419.881L400.672 406.021L330.898 451.9Z" fill="#969696"/>
<path d="M415.248 268.505C415.846 268.146 416.443 267.788 417.16 267.668L426.957 185.23C426.24 184.872 425.643 184.394 425.165 183.796L396.491 151.299C388.964 190.009 376.538 262.531 370.684 297.179L415.248 268.505Z" fill="#969696"/>
<path d="M368.772 298.374L370.684 297.179C376.538 262.531 388.844 190.009 396.491 151.299L350.254 98.8489L300.074 316.534L368.772 298.374Z" fill="#C2C1C0"/>
<path d="M238.305 272.806H257.421L286.334 189.651L248.46 72.5642H246.071L203.298 193.235L238.305 272.806ZM247.385 101.597L274.267 184.633L253.837 243.534H240.336L215.485 187.022L245.832 101.477H247.385V101.597Z" fill="white"/>
<path d="M240.216 243.653H253.717L274.267 184.632L247.385 101.597H245.712L215.365 187.141L240.216 243.653Z" fill="#C2C1C0"/>
<path d="M419.311 448.196L420.864 438.28L421.82 432.186L422.418 428.602L423.373 422.509L423.971 418.925L424.927 412.831L425.524 409.247L426.48 403.154L427.077 399.569L428.033 393.476L428.63 389.892L429.586 383.799L430.183 380.214L431.139 374.121L431.737 370.537L432.693 364.444L433.529 359.545L434.246 354.766L434.843 351.182L435.799 345.089L436.277 342.102L436.994 337.203L438.666 326.331L426.719 303.63H426.36L421.103 347.717C421.103 348.434 421.103 349.151 420.864 349.748L407.244 464.564L418.714 458.83L420.506 447.121L419.311 448.196Z" fill="#969696"/>
<path d="M433.17 303.272L426.599 304.108L438.546 326.689L436.754 337.681L436.993 336.486H462.442L461.247 342.46H436.157H436.038L435.56 345.447H435.679H460.65L459.455 351.54H434.723H434.604L434.006 355.125H434.245H458.738L457.543 361.218H433.29H433.051L433.29 359.904L432.453 364.802H432.812H456.826L455.632 370.776H431.856H431.498L431.02 374.48H431.378H454.915L453.72 380.453H430.422H430.064L429.466 384.038H429.825H453.003L451.808 390.131H428.988H428.511L427.913 393.715H428.391H451.091L449.897 399.809H427.555H426.957L426.36 403.393H426.957H449.18L447.985 409.367H426.002H425.404L424.926 412.951H425.524H447.268L446.074 419.044H424.568H423.97L423.373 422.628H424.09H445.357L444.162 428.722H423.134H422.417L421.82 432.306H422.656H443.445L442.609 436.846L439.622 438.28H421.7H420.864L419.311 448.196L420.267 447.718L418.475 459.427L455.751 440.908L477.854 325.256L449.658 301.48L433.17 303.272Z" fill="#C2C1C0"/>
<path d="M434.962 289.771L445.834 288.577L478.69 31.2255L468.774 26.5659L434.962 289.771Z" fill="#C2C1C0"/>
<path d="M459.693 22.2649L427.793 290.608L434.962 289.771L468.774 26.566L459.693 22.2649Z" fill="#969696"/>
<path d="M77.132 348.195L71.9946 305.064L60.8833 326.211L62.556 336.964L63.1534 340.787L63.6313 343.774L64.3481 348.195L65.1844 353.332L65.4234 354.766L66.7376 363.01L67.0961 365.16L68.4103 373.404L69.2466 378.661L70.4414 386.069L70.7999 388.339L71.8752 394.91L72.353 397.897L72.9503 401.481L73.9062 407.574L74.5036 411.159L74.9815 414.145L76.0568 420.717L76.6542 424.54L77.6099 430.394L78.5658 436.487L80.1189 446.404L78.8047 445.807L80.9553 460.024L91.2302 465.162L77.6099 350.345C77.132 349.628 77.132 348.912 77.132 348.195Z" fill="#969696"/>
<path d="M211.901 320.596L242.487 328.84H253.598L286.095 320.238C285.976 319.401 285.976 318.565 286.215 317.729L338.426 91.4414H268.532L299.716 187.739C300.194 189.053 300.194 190.606 299.716 191.921L268.532 281.647C267.577 284.275 265.068 286.068 262.32 286.068H234.123C231.495 286.068 229.105 284.514 228.03 282.125L190.156 196.102C189.439 194.549 189.439 192.757 189.917 191.204L225.282 91.4414H159.69L211.901 317.729C212.14 318.685 212.14 319.64 211.901 320.596Z" fill="#969696"/>
<path d="M70.2024 290.608L38.4218 22.2649L28.8638 26.805L62.6754 289.771L70.2024 290.608Z" fill="#969696"/>
<path d="M62.6753 289.771L28.8637 26.8049L19.3057 31.2256L52.281 288.577L62.6753 289.771Z" fill="#C2C1C0"/>
<path d="M129.224 298.373L198.042 316.773L147.742 98.7292L100.908 151.896C108.435 190.606 120.621 261.933 126.476 296.581L129.224 298.373Z" fill="#C2C1C0"/>
<path d="M82.7473 268.504L126.475 296.581C120.621 261.933 108.435 190.606 100.908 151.896L72.8307 183.677C72.3528 184.274 71.636 184.752 71.0386 185.11L80.8357 267.549C81.5525 267.907 82.1499 268.146 82.7473 268.504Z" fill="#969696"/>
<path d="M488.727 21.309L470.566 12.7067L456.946 6.25505C455.035 5.29924 452.764 5.41869 450.853 6.49398C448.941 7.56926 447.746 9.36141 447.507 11.512L428.869 168.145L399.717 135.05L351.568 80.4496C351.449 80.3301 351.329 80.2106 351.21 80.0911L351.09 79.9716C350.971 79.8522 350.732 79.7327 350.612 79.6132C350.015 79.2548 349.418 78.8964 348.82 78.6574C348.701 78.6574 348.701 78.6574 348.581 78.6574C348.462 78.6574 348.342 78.5379 348.223 78.5379C348.103 78.5379 348.104 78.5379 347.984 78.5379C347.865 78.5379 347.745 78.5379 347.506 78.4185C347.387 78.4185 347.387 78.4185 347.267 78.4185C347.148 78.4185 346.909 78.4185 346.789 78.4185H264.47C264.351 78.4185 264.351 78.4185 264.232 78.4185L259.572 64.0814C258.736 61.3334 256.107 59.5413 253.24 59.5413H241.412C238.544 59.5413 236.155 61.3334 235.199 63.9619L230.061 78.4185H151.446C151.327 78.4185 151.088 78.4185 150.968 78.4185C150.849 78.4185 150.849 78.4185 150.729 78.4185C150.61 78.4185 150.49 78.4185 150.252 78.5379C150.132 78.5379 150.132 78.5379 150.012 78.5379C149.893 78.5379 149.774 78.6574 149.654 78.6574C149.535 78.6574 149.535 78.6574 149.415 78.7769C148.698 79.0158 148.101 79.3743 147.623 79.7327C147.503 79.8522 147.265 79.9716 147.145 80.0911L147.026 80.2106C146.906 80.3301 146.787 80.4495 146.667 80.569L97.921 135.886L69.3663 168.264L50.4892 11.512C50.2502 9.36141 48.9359 7.56926 47.1438 6.49398C45.2322 5.41869 43.0816 5.41871 41.0506 6.25505L27.0719 12.9457L9.38945 21.309C6.76098 22.5038 5.3273 25.2517 5.68573 28.1191L39.3779 291.802L8.79207 317.609C6.99993 319.162 6.04409 321.552 6.522 323.941L29.9392 446.643C30.2977 448.674 31.6119 450.466 33.5235 451.303L95.4121 482.008L205.569 573.885L205.688 574.004C205.808 574.124 206.047 574.243 206.286 574.363C206.405 574.482 206.525 574.482 206.644 574.602C206.883 574.721 207.003 574.841 207.241 574.841C207.361 574.841 207.48 574.96 207.6 574.96C207.839 575.08 208.078 575.08 208.436 575.199C208.556 575.199 208.675 575.199 208.675 575.319C209.034 575.438 209.392 575.438 209.75 575.438H288.127C288.485 575.438 288.843 575.438 289.202 575.319C289.321 575.319 289.441 575.319 289.441 575.199C289.68 575.199 289.919 575.08 290.158 574.96C290.277 574.96 290.397 574.841 290.516 574.841C290.755 574.721 290.875 574.721 291.114 574.602C291.233 574.482 291.352 574.482 291.472 574.363C291.711 574.243 291.83 574.124 292.069 574.004L292.189 573.885L402.346 482.008L464.234 451.303C466.146 450.347 467.46 448.674 467.818 446.643L491.236 323.941C491.714 321.552 490.877 319.162 488.965 317.609L458.38 291.802L492.072 28.1191C492.789 25.2517 491.355 22.5038 488.727 21.309ZM350.254 98.8489L396.491 151.299L425.165 183.796C425.643 184.394 426.36 184.871 426.958 185.23L417.161 267.668C416.444 267.788 415.846 268.146 415.249 268.505L370.684 297.179L368.773 298.374L299.955 316.534L350.254 98.8489ZM407.961 344.611L317.518 399.331L254.554 357.992C254.315 357.753 253.957 357.634 253.718 357.514H253.598C253.359 357.395 253.12 357.275 252.762 357.275C252.762 357.275 252.762 357.275 252.642 357.275C252.284 357.156 252.045 357.156 251.687 357.036C251.328 357.036 250.97 357.036 250.731 357.036C249.536 357.036 248.461 357.395 247.385 357.992L180.598 399.57L90.0357 344.85L82.8671 284.634L123.011 310.441C123.608 310.799 124.206 311.038 124.923 311.277L129.224 312.472L131.972 313.189L228.986 339.234L239.978 342.221C240.575 342.341 241.173 342.46 241.651 342.46H250.731H254.434C255.032 342.46 255.629 342.341 256.107 342.221L268.652 338.876L366.144 313.189L368.056 312.711L373.074 311.396C373.791 311.277 374.388 310.919 374.986 310.56L415.129 284.753L407.961 344.611ZM246.071 72.4447H248.461L286.335 189.531L257.421 272.686H238.305L203.299 192.996L246.071 72.4447ZM225.282 91.4413L189.917 191.204C189.32 192.757 189.44 194.549 190.156 196.102L228.03 282.125C229.106 284.514 231.495 286.068 234.124 286.068H262.32C265.187 286.068 267.696 284.275 268.533 281.647L299.716 191.921C300.194 190.606 300.194 189.053 299.716 187.739L268.533 91.4413H338.426L286.215 317.729C285.976 318.565 285.976 319.401 286.096 320.238L253.598 328.84H242.487L211.901 320.596C212.14 319.64 212.14 318.684 211.901 317.729L159.69 91.4413H225.282ZM72.9505 183.796L101.027 152.016L147.862 98.8489L198.161 316.892L129.343 298.493L126.595 296.701L82.8671 268.624C82.2697 268.266 81.6724 267.907 80.9555 267.788L71.1584 185.349C71.7558 184.871 72.3532 184.394 72.9505 183.796ZM19.306 31.2255L28.7445 26.6854L38.3025 22.1453L70.2027 290.488L62.5562 289.652L52.1619 288.457L19.306 31.2255ZM80.7165 460.024L42.3648 441.028L20.2617 325.375L48.458 301.599L64.4678 303.392L71.9948 304.228L72.1143 305.303L77.2518 348.434C77.2518 349.151 77.2517 349.868 77.4907 350.465L91.111 465.281L80.7165 460.024ZM181.196 536.369L105.329 473.167L98.399 414.982L97.3237 406.021L167.098 451.9L196.967 549.512L181.196 536.369ZM392.788 473.047L319.19 534.458L301.149 549.512L331.018 451.9L400.792 406.021L399.12 419.88L392.788 473.047ZM402.704 388.817L321.58 442.222C320.266 443.059 319.31 444.373 318.832 445.807L283.228 562.296H249.416H214.649L179.045 445.807C178.567 444.373 177.611 443.059 176.297 442.222L95.1732 388.817L92.1863 363.607L91.9472 361.337L177.134 412.831C178.209 413.429 179.404 413.787 180.598 413.787C181.793 413.787 182.988 413.429 184.063 412.831L249.416 372.21L250.731 371.373L313.694 412.712C315.845 414.146 318.593 414.146 320.744 412.831L405.93 361.337L405.332 366.833L402.704 388.817ZM477.854 325.256L455.751 440.908L418.475 459.427L407.005 465.162L420.625 350.346C420.864 349.629 420.864 349.031 420.864 348.314L426.121 304.228H426.48L433.17 303.511L449.539 301.719L477.854 325.256ZM445.835 288.577L434.962 289.771L427.794 290.608L459.694 22.2648L468.894 26.5659L478.81 31.2255L445.835 288.577Z" fill="#303030"/>
<path d="M79.88 446.404L78.3268 436.607H77.132H59.5691L56.5822 435.173L55.6264 430.513H76.2958H77.3711L76.4152 424.779L76.7737 426.929H75.6984H54.9095L53.7148 420.955H74.7425H75.8178L74.7425 414.265L75.2204 417.252H74.2647H52.998L51.8032 411.278H73.3089H74.2647L73.6673 407.693H72.8309H51.0864L50.0111 401.6H71.8752H72.7115L72.2335 398.016H71.3973H49.2942L48.0995 391.923H70.4414H71.2778L71.7556 395.029L70.6804 388.338H69.844H47.3826L46.1879 382.365H69.0078H69.7246L70.322 386.188L69.1272 378.78H68.4104H45.4709L44.2762 372.687H67.574H68.1713L68.2909 373.523L66.9766 365.28L67.574 369.103H66.9766H43.5593L42.3646 363.01H66.0209H66.6182L65.304 354.766L66.1403 359.425H65.5429H41.6477L40.453 353.451H64.5871H65.1844L64.3482 348.195L64.5871 349.748H64.1093H39.7362L38.5414 343.774H63.1534H63.6313L63.1534 340.787H62.6755H37.944L36.7493 334.694H61.8392H62.1975L62.556 336.964L60.8833 326.211L71.9946 305.183L71.8752 304.108L64.3482 303.272L48.4578 301.479L20.1421 325.255L42.2451 440.908L80.7163 460.024L78.5658 445.806L79.88 446.404Z" fill="#C2C1C0"/>
<path d="M61.839 334.694H36.749L37.9438 340.788H62.6752H63.1532L62.5558 336.964L62.1973 334.694H61.839Z" fill="#303030"/>
<path d="M38.541 343.774L39.7358 349.748H64.1089H64.5867L64.3478 348.195L63.6309 343.774H63.153H38.541Z" fill="#303030"/>
<path d="M40.4531 353.452L41.6479 359.425H65.5431H66.1404L65.3042 354.766L65.1846 353.452H64.5872H40.4531Z" fill="#303030"/>
<path d="M42.3643 363.01L43.559 369.103H66.9763H67.5736L66.9763 365.28L66.6179 363.01H66.0205H42.3643Z" fill="#303030"/>
<path d="M67.5737 372.688H44.2759L45.4706 378.781H68.4101H69.1269L68.2906 373.524L68.1711 372.688H67.5737Z" fill="#303030"/>
<path d="M69.0074 382.365H46.1875L47.3823 388.339H69.8436H70.6801L70.3216 386.188L69.7242 382.365H69.0074Z" fill="#303030"/>
<path d="M70.441 391.923H48.0991L49.2939 398.017H71.3969H72.2332L71.7553 395.03L71.2775 391.923H70.441Z" fill="#303030"/>
<path d="M50.0112 401.601L51.0865 407.694H72.8311H73.6675L72.7116 401.601H71.8754H50.0112Z" fill="#303030"/>
<path d="M51.8032 411.278L52.998 417.252H74.2647H75.2205L74.7425 414.265L74.2647 411.278H73.3089H51.8032Z" fill="#303030"/>
<path d="M53.7144 420.956L54.9091 426.929H75.6979H76.7733L76.4148 424.779L75.8174 420.956H74.7421H53.7144Z" fill="#303030"/>
<path d="M55.626 430.514L56.5818 435.173L59.5687 436.607H77.1316H78.3264L77.3707 430.514H76.2954H55.626Z" fill="#303030"/>
<path d="M436.157 342.46H461.246L462.441 336.486H436.993L436.754 337.681L436.037 342.46H436.157Z" fill="#303030"/>
<path d="M434.604 351.541H434.723H459.454L460.649 345.447H435.679H435.559L434.604 351.541Z" fill="#303030"/>
<path d="M433.05 361.218H433.289H457.543L458.738 355.125H434.245H434.006L433.289 359.904L433.05 361.218Z" fill="#303030"/>
<path d="M431.855 370.776H455.631L456.826 364.802H432.811H432.453L431.497 370.776H431.855Z" fill="#303030"/>
<path d="M430.063 380.453H430.422H453.72L454.914 374.479H431.378H431.019L430.063 380.453Z" fill="#303030"/>
<path d="M428.51 390.131H428.988H451.808L453.003 384.038H429.824H429.466L428.51 390.131Z" fill="#303030"/>
<path d="M427.555 399.809H449.897L451.092 393.715H428.391H427.913L426.958 399.809H427.555Z" fill="#303030"/>
<path d="M425.404 409.366H426.001H447.985L449.18 403.393H426.957H426.36L425.404 409.366Z" fill="#303030"/>
<path d="M423.971 419.044H424.568H446.074L447.268 412.951H425.524H424.927L423.971 419.044Z" fill="#303030"/>
<path d="M422.417 428.722H423.134H444.162L445.356 422.628H424.09H423.373L422.417 428.722Z" fill="#303030"/>
<path d="M420.864 438.28H421.7H439.621L442.608 436.846L443.445 432.306H422.656H421.819L420.864 438.28Z" fill="#303030"/>
</svg>
