<svg width="285" height="179" viewBox="0 0 285 179" fill="none" xmlns="http://www.w3.org/2000/svg">
<path fill-rule="evenodd" clip-rule="evenodd" d="M171.631 9.3125C167.881 9.39062 165.537 11.1094 164.599 14.4688L124.521 171.734C123.818 174.781 124.482 176.969 126.513 178.297C127.295 178.766 128.193 179 129.209 179H149.131C152.881 178.922 155.224 177.203 156.162 173.844L177.842 88.6484C178.31 102.477 178.193 114.781 177.49 125.562C177.177 131.109 179.677 134.234 184.99 134.938L200.459 136.578C206.084 136.578 210.967 133.18 215.107 126.383C215.263 126.148 215.381 125.953 215.459 125.797L230.81 100.367L212.646 171.734C211.943 174.781 212.607 176.969 214.638 178.297C215.42 178.766 216.318 179 217.334 179H237.256C241.006 178.922 243.349 177.203 244.287 173.844L284.365 16.5781C285.068 13.5312 284.404 11.3438 282.373 10.0156C281.592 9.54688 280.693 9.3125 279.677 9.3125H257.177C254.443 9.3125 252.256 10.5234 250.615 12.9453C250.459 13.2578 250.302 13.5312 250.146 13.7656L202.451 95.9141C203.467 72.2422 202.568 45.1719 199.756 14.7031C199.365 11.5781 197.998 9.82031 195.654 9.42969C195.107 9.35156 194.599 9.3125 194.131 9.3125H171.631Z" fill="#FEB113"/>
<path fill-rule="evenodd" clip-rule="evenodd" d="M72.3804 0.875C68.6304 0.953125 66.2866 2.67188 65.3491 6.03125C65.0908 7.04491 64.9044 7.99442 64.7843 8.88333C61.4631 8.96101 20.6168 10.8519 0 56.88C27.474 38.151 54.0807 36.8648 57.6057 36.7765L23.2712 171.302C22.5681 174.349 23.2321 176.536 25.2634 177.864C26.0446 178.333 26.9431 178.568 27.9587 178.568H47.8806C51.6306 178.489 53.9743 176.771 54.9118 173.411L70.4978 112.239H112.099C114.599 112.239 116.709 110.989 118.427 108.489C118.974 107.552 119.365 106.614 119.599 105.677L122.412 91.8488C123.427 86.9269 121.787 84.4269 117.49 84.3488H77.6462L89.7165 36.7706H134.599C137.256 36.7706 139.482 35.5206 141.279 33.0206C141.904 32.0831 142.334 31.1456 142.568 30.2081L145.615 16.38C146.631 11.4581 144.834 8.95813 140.224 8.88H96.8323L96.9898 8.14062C97.6929 5.09375 97.0288 2.90625 94.9976 1.57812C94.2163 1.10937 93.3179 0.875 92.3022 0.875H72.3804Z" fill="white"/>
</svg>
